<?xml version="1.0" encoding="UTF-8"?><svg id="Ebene_2" xmlns="http://www.w3.org/2000/svg" viewBox="0 0 336.41 295.05"><defs><style>.cls-1{fill:#fff;}.cls-2{fill:#096595;}</style></defs><g id="Ebene_1_Kopie_Kopie"><path class="cls-2" d="M82.38,295.05c-5.32,0-10.59-2.35-14.14-6.85-6.16-7.8-4.83-19.12,2.97-25.28,.22-.17,4.3-3.43,10.73-9.05-4.5-2.38-8.93-4.98-13.28-7.78C30.6,221.61,5.27,185.58,.91,149.7-3.99,109.45,11.85,82.31,26,66.63c16.05-17.79,39.03-30.45,61.46-33.87,18.55-2.83,37.03-1.89,53.65,2.59,.49-.53,.98-1.05,1.48-1.58C163.42,11.62,191.88-.4,222.72,.01c28.79,.36,55.21,11.64,72.49,30.96,27.58,30.84,36.68,76.19,24.32,121.33-2.82,10.3-6.63,20.2-11.32,29.59,7.31,.97,11.7,1.38,11.83,1.39,9.9,.9,17.2,9.65,16.3,19.55-.9,9.9-9.63,17.2-19.54,16.3-.91-.08-12.9-1.19-30.6-4.11-20.31,23.73-47.49,41.86-79.04,51.84-28.26,8.95-58.58,9.35-87.78,1.68-14.48,13.61-25.08,22.02-25.85,22.64-3.3,2.61-7.24,3.87-11.14,3.87Zm67.34-57.6c15.81,1.43,31.59-.17,46.57-4.91,17.95-5.68,34.09-14.66,47.7-26.19-4.36-1.09-8.8-2.26-13.27-3.52-16.24-4.58-30.82-9.72-43.73-15.41-7.66,13-17.32,26.49-28.99,40.43-2.75,3.29-5.52,6.49-8.29,9.6ZM108.59,67.15c-5.14,0-10.4,.4-15.7,1.21-11.18,1.7-27.6,8.48-40.16,22.39-13.29,14.72-18.7,33.1-16.08,54.6,3.04,24.99,22.77,51.99,51.49,70.46,7.04,4.53,14.34,8.38,21.79,11.54,6.81-6.99,13.92-14.75,20.82-23.02,8.5-10.19,17.3-21.92,24.65-34.22-18.99-13.05-31.58-28.16-37.63-45.22-7.39-20.83-7.37-38.94,.85-57.23-3.28-.35-6.62-.52-10.03-.52Zm93.75,87.66c11.01,4.82,23.62,9.26,37.68,13.24,10.54,2.98,20.94,5.44,30.59,7.44,6.22-10.09,11.03-21.06,14.21-32.7,9.12-33.3,2.97-66.13-16.43-87.82-10.41-11.64-27.65-18.73-46.1-18.96-17.42-.25-33.66,5.42-46.62,16.04,13.82,10.55,23.93,24.64,29.18,40.96,6.04,18.79,5.19,39.44-2.5,61.81Zm-49.63-74.99c-6.85,13.18-4.75,22.54-1.02,33.05,2.91,8.2,9.23,16.11,18.64,23.54,2.97-11.27,3.47-22.3,.23-32.38-3.65-11.35-10.71-19.05-17.85-24.2Z"/><path class="cls-1" d="M102.35,248.97c.47,4.53,4.57,7.81,9.16,7.34,4.59-.48,7.92-4.53,7.45-9.06s-4.57-7.81-9.16-7.34c-4.59,.48-7.92,4.53-7.45,9.06Zm168.1-52.99c.47,4.48,4.52,7.72,9.05,7.25s7.83-4.48,7.37-8.96-4.52-7.72-9.05-7.25-7.83,4.48-7.37,8.96Zm-74.91,52.39c.47,4.53,4.57,7.81,9.16,7.34s7.92-4.53,7.45-9.06-4.57-7.81-9.16-7.34-7.92,4.53-7.45,9.06Z"/></g></svg>